<svg xmlns="http://www.w3.org/2000/svg" viewBox="0 0 1024 1024">
  <!-- App-icon tile of the portal brand mark (orcaSVG in portal app.js; tile
       gradient from .brand .mark in portal styles.css). icon.png is rendered
       from this via rsvg-convert. -->
  <defs>
    <radialGradient id="bg" cx="0.5" cy="0.3" r="1.2">
      <stop offset="0" stop-color="#0e2d33"/>
      <stop offset="1" stop-color="#06171c"/>
    </radialGradient>
  </defs>
  <rect width="1024" height="1024" rx="230" fill="url(#bg)"/>
  <g transform="translate(148,148) scale(7.28)">
    <path d="M27,83 C28,55 33,32 45.5,22.5 C51.5,18 57.5,19.5 60,27 C64.5,46 70.5,67 73,83 Z" fill="#f3fbfb"/>
    <g stroke="#06171c" stroke-width="2.4" stroke-linecap="round">
      <line x1="49" y1="38" x2="40" y2="62"/><line x1="49" y1="38" x2="56" y2="62"/><line x1="49" y1="38" x2="50" y2="74"/>
    </g>
    <g fill="#06171c"><circle cx="39" cy="64" r="4"/><circle cx="57" cy="64" r="4"/><circle cx="50" cy="76" r="4"/></g>
    <circle cx="49" cy="35" r="6" fill="#1fc7cd"/>
    <path d="M13,86 C28,82 38,82 50,82.5 C62,82 72,82 87,86" stroke="#1fc7cd" stroke-width="5" stroke-linecap="round" fill="none"/>
  </g>
</svg>
